<mxfile host="app.diagrams.net" agent="Mozilla/5.0 (Windows NT 10.0; Win64; x64) AppleWebKit/537.36 (KHTML, like Gecko) Chrome/128.0.0.0 Safari/537.36" version="24.7.10">
  <diagram name="PÃ¡gina-1" id="bYXpxAsvm4wjGhk3q4aR">
    <mxGraphModel grid="1" page="1" gridSize="10" guides="1" tooltips="1" connect="1" arrows="1" fold="1" pageScale="1" pageWidth="827" pageHeight="1169" math="0" shadow="0">
      <root>
        <mxCell id="0" />
        <mxCell id="1" parent="0" />
        <mxCell id="XJn9d8lY9YgRE-wbG7gD-1" value="" style="rounded=0;whiteSpace=wrap;html=1;" vertex="1" parent="1">
          <mxGeometry x="200" y="170" width="580" height="360" as="geometry" />
        </mxCell>
        <mxCell id="XJn9d8lY9YgRE-wbG7gD-2" value="Usuario Alumno" style="shape=umlActor;verticalLabelPosition=bottom;verticalAlign=top;html=1;" vertex="1" parent="1">
          <mxGeometry x="100" y="350" width="30" height="60" as="geometry" />
        </mxCell>
        <mxCell id="XJn9d8lY9YgRE-wbG7gD-3" value="Modificar evento" style="ellipse;whiteSpace=wrap;html=1;" vertex="1" parent="1">
          <mxGeometry x="270" y="346.25" width="130" height="67.5" as="geometry" />
        </mxCell>
        <mxCell id="XJn9d8lY9YgRE-wbG7gD-6" value="" style="endArrow=block;endFill=1;html=1;edgeStyle=orthogonalEdgeStyle;align=left;verticalAlign=top;rounded=0;exitX=0.5;exitY=0.5;exitDx=0;exitDy=0;exitPerimeter=0;entryX=0;entryY=0.5;entryDx=0;entryDy=0;" edge="1" parent="1" source="XJn9d8lY9YgRE-wbG7gD-2" target="XJn9d8lY9YgRE-wbG7gD-3">
          <mxGeometry x="-1" relative="1" as="geometry">
            <mxPoint x="180" y="450" as="sourcePoint" />
            <mxPoint x="340" y="450" as="targetPoint" />
          </mxGeometry>
        </mxCell>
        <mxCell id="curNAxPgGzG5V5cnU8dp-5" value="Actualizar fecha, hora, lugar ,deporte" style="ellipse;whiteSpace=wrap;html=1;" vertex="1" parent="1">
          <mxGeometry x="510" y="345" width="140" height="70" as="geometry" />
        </mxCell>
        <mxCell id="curNAxPgGzG5V5cnU8dp-6" value="Include" style="endArrow=open;endSize=12;dashed=1;html=1;rounded=0;exitX=0;exitY=0.5;exitDx=0;exitDy=0;" edge="1" parent="1" source="curNAxPgGzG5V5cnU8dp-5" target="XJn9d8lY9YgRE-wbG7gD-3">
          <mxGeometry width="160" relative="1" as="geometry">
            <mxPoint x="450" y="480" as="sourcePoint" />
            <mxPoint x="610" y="480" as="targetPoint" />
          </mxGeometry>
        </mxCell>
      </root>
    </mxGraphModel>
  </diagram>
</mxfile>
